<svg fill="#383838" height="16" width="16" version="1.1" xmlns="http://www.w3.org/2000/svg" viewBox="0 0 512 512" xmlns:xlink="http://www.w3.org/1999/xlink" enable-background="new 0 0 512 512">
  <g>
    <g>
      <g>
        <path d="m105.5,282.4h375.1c11.3,0 20.4-9.1 20.4-20.4v-230.6c0-11.3-9.1-20.4-20.4-20.4h-375.1c-11.3,0-20.4,9.1-20.4,20.4v95.1c-41.3,2.8-74,39.6-74,84.4v149.4c0,44.9 34.1,81.3 76.1,81.3h200.8v18.5c0,9.7 6.8,18.1 16.3,20l100.4,20.5c25.6,2.8 24.5-21.7 24.5-21.7h51.6c11.3,0 20.4-9.1 20.4-20.4 0-11.3-9.1-20.4-20.4-20.4h-51.6v-39.9h51.6c11.3,0 20.4-9.1 20.4-20.4 0-11.3-9.1-20.4-20.4-20.4h-51.6c0,0 1.2-24.8-24.5-21.7l-100.4,20.5c-9.5,1.9-16.3,10.3-16.3,20v24.6h-200.9c-19.4,0-35.2-18.2-35.2-40.5v-149.4c0-22.2 14.5-40.6 33.2-43.4v94.5c0,11.3 9.1,20.4 20.4,20.4zm20.4-230.6h334.3v189.7h-334.3v-189.7zm202.8,341l59.5-12.2v74.9l-59.5-12.2v-50.5z"/>
        <path d="m191.4,82.2c-11.3,0-20.4,9.1-20.4,20.4v1.6c0,11.3 9.1,20.4 20.4,20.4 11.3,0 20.4-9.1 20.4-20.4v-1.6c0-11.2-9.2-20.4-20.4-20.4z"/>
        <path d="m191.4,168.8c-11.3,0-20.4,9.1-20.4,20.4v1.6c0,11.3 9.1,20.4 20.4,20.4 11.3,0 20.4-9.1 20.4-20.4v-1.6c0-11.3-9.2-20.4-20.4-20.4z"/>
        <path d="m293,82.2c-11.3,0-20.4,9.1-20.4,20.4v1.6c0,11.3 9.1,20.4 20.4,20.4 11.3,0 20.4-9.1 20.4-20.4v-1.6c0.1-11.2-9.1-20.4-20.4-20.4z"/>
        <path d="m293,168.8c-11.3,0-20.4,9.1-20.4,20.4v1.6c0,11.3 9.1,20.4 20.4,20.4 11.3,0 20.4-9.1 20.4-20.4v-1.6c0.1-11.3-9.1-20.4-20.4-20.4z"/>
        <path d="m394.7,82.2c-11.3,0-20.4,9.1-20.4,20.4v1.6c0,11.3 9.1,20.4 20.4,20.4 11.3,0 20.4-9.1 20.4-20.4v-1.6c5.68434e-14-11.2-9.1-20.4-20.4-20.4z"/>
        <path d="m394.7,168.8c-11.3,0-20.4,9.1-20.4,20.4v1.6c0,11.3 9.1,20.4 20.4,20.4 11.3,0 20.4-9.1 20.4-20.4v-1.6c5.68434e-14-11.3-9.1-20.4-20.4-20.4z"/>
      </g>
    </g>
  </g>
</svg>