<svg width="13" height="13" viewBox="0 0 13 13" fill="none" xmlns="http://www.w3.org/2000/svg">
<path d="M11.7812 3.25V8.9375C11.7812 9.26073 11.6528 9.57073 11.4243 9.79929C11.1957 10.0278 10.8857 10.1562 10.5625 10.1562H2.4375C2.11427 10.1562 1.80427 10.0278 1.57571 9.79929C1.34715 9.57073 1.21875 9.26073 1.21875 8.9375V3.25C1.21875 2.92677 1.34715 2.61677 1.57571 2.38821C1.80427 2.15965 2.11427 2.03125 2.4375 2.03125H10.5625C10.8857 2.03125 11.1957 2.15965 11.4243 2.38821C11.6528 2.61677 11.7812 2.92677 11.7812 3.25ZM8.125 10.9688H4.875C4.76726 10.9688 4.66392 11.0116 4.58774 11.0877C4.51155 11.1639 4.46875 11.2673 4.46875 11.375C4.46875 11.4827 4.51155 11.5861 4.58774 11.6623C4.66392 11.7384 4.76726 11.7812 4.875 11.7812H8.125C8.23274 11.7812 8.33608 11.7384 8.41226 11.6623C8.48845 11.5861 8.53125 11.4827 8.53125 11.375C8.53125 11.2673 8.48845 11.1639 8.41226 11.0877C8.33608 11.0116 8.23274 10.9688 8.125 10.9688Z" fill="#383838"/>
</svg>
