<svg width="13" height="13" viewBox="0 0 13 13" fill="none" xmlns="http://www.w3.org/2000/svg">
<path d="M8.66634 3.25C8.05426 3.25 7.45842 3.43958 6.95467 3.79167H2.16634C1.56509 3.79167 1.08301 4.27375 1.08301 4.875V8.125C1.08301 8.72625 1.56509 9.20833 2.16634 9.20833H2.70801V9.75C2.70801 9.89366 2.76508 10.0314 2.86666 10.133C2.96824 10.2346 3.10602 10.2917 3.24967 10.2917H4.33301C4.47667 10.2917 4.61444 10.2346 4.71602 10.133C4.81761 10.0314 4.87467 9.89366 4.87467 9.75V9.20833H8.12467V9.75C8.12467 9.89366 8.18174 10.0314 8.28332 10.133C8.38491 10.2346 8.52268 10.2917 8.66634 10.2917H9.74967C9.89333 10.2917 10.0311 10.2346 10.1327 10.133C10.2343 10.0314 10.2913 9.89366 10.2913 9.75V9.20833H10.833C11.4343 9.20833 11.9163 8.72625 11.9163 8.125V4.875C11.9163 4.27375 11.4343 3.79167 10.833 3.79167H10.3726C9.87426 3.43958 9.27842 3.25 8.66634 3.25ZM8.66634 4.0625C8.91531 4.0625 9.16183 4.11154 9.39184 4.20681C9.62186 4.30209 9.83085 4.44173 10.0069 4.61778C10.1829 4.79382 10.3226 5.00282 10.4179 5.23283C10.5131 5.46284 10.5622 5.70937 10.5622 5.95833C10.5622 6.46114 10.3624 6.94335 10.0069 7.29889C9.65136 7.65443 9.16915 7.85417 8.66634 7.85417C8.16353 7.85417 7.68132 7.65443 7.32578 7.29889C6.97025 6.94335 6.77051 6.46114 6.77051 5.95833C6.77051 5.45553 6.97025 4.97331 7.32578 4.61778C7.68132 4.26224 8.16353 4.0625 8.66634 4.0625ZM2.16634 4.875H4.33301V5.41667H2.16634V4.875ZM8.66634 4.875C8.37902 4.875 8.10347 4.98914 7.90031 5.1923C7.69714 5.39547 7.58301 5.67102 7.58301 5.95833C7.58301 6.24565 7.69714 6.5212 7.90031 6.72437C8.10347 6.92753 8.37902 7.04167 8.66634 7.04167C8.95366 7.04167 9.22921 6.92753 9.43237 6.72437C9.63554 6.5212 9.74967 6.24565 9.74967 5.95833C9.74967 5.67102 9.63554 5.39547 9.43237 5.1923C9.22921 4.98914 8.95366 4.875 8.66634 4.875ZM2.16634 5.95833H4.33301V6.5H2.16634V5.95833ZM2.16634 7.04167H4.33301V7.58333H2.16634V7.04167Z" fill="#383838"/>
</svg>
