<svg width="13" height="13" viewBox="0 0 13 13" fill="none" xmlns="http://www.w3.org/2000/svg">
<g clip-path="url(#clip0_13064_80)">
<path d="M11.7812 3.25V2.4375C11.7812 2.22201 11.6956 2.01535 11.5433 1.86298C11.3909 1.7106 11.1842 1.625 10.9688 1.625H2.03125C1.81576 1.625 1.6091 1.7106 1.45673 1.86298C1.30435 2.01535 1.21875 2.22201 1.21875 2.4375V3.25C1.21875 3.46549 1.30435 3.67215 1.45673 3.82452C1.6091 3.9769 1.81576 4.0625 2.03125 4.0625V8.9375H1.625C1.51726 8.9375 1.41392 8.9803 1.33774 9.05649C1.26155 9.13267 1.21875 9.23601 1.21875 9.34375C1.21875 9.45149 1.26155 9.55483 1.33774 9.63101C1.41392 9.7072 1.51726 9.75 1.625 9.75H6.09375V10.6326C5.82269 10.7284 5.59424 10.917 5.44877 11.165C5.30331 11.4129 5.25019 11.7044 5.2988 11.9877C5.34742 12.2711 5.49464 12.5281 5.71445 12.7134C5.93426 12.8987 6.2125 13.0004 6.5 13.0004C6.7875 13.0004 7.06574 12.8987 7.28555 12.7134C7.50536 12.5281 7.65258 12.2711 7.7012 11.9877C7.74981 11.7044 7.69669 11.4129 7.55123 11.165C7.40576 10.917 7.17731 10.7284 6.90625 10.6326V9.75H11.375C11.4827 9.75 11.5861 9.7072 11.6623 9.63101C11.7384 9.55483 11.7812 9.45149 11.7812 9.34375C11.7812 9.23601 11.7384 9.13267 11.6623 9.05649C11.5861 8.9803 11.4827 8.9375 11.375 8.9375H10.9688V4.0625C11.1842 4.0625 11.3909 3.9769 11.5433 3.82452C11.6956 3.67215 11.7812 3.46549 11.7812 3.25ZM6.5 12.1875C6.41965 12.1875 6.34111 12.1637 6.2743 12.119C6.20749 12.0744 6.15542 12.0109 6.12467 11.9367C6.09393 11.8625 6.08588 11.7808 6.10156 11.702C6.11723 11.6232 6.15592 11.5508 6.21274 11.494C6.26955 11.4372 6.34194 11.3985 6.42074 11.3828C6.49955 11.3671 6.58123 11.3752 6.65547 11.4059C6.7297 11.4367 6.79315 11.4887 6.83778 11.5555C6.88242 11.6224 6.90625 11.7009 6.90625 11.7812C6.90625 11.889 6.86345 11.9923 6.78726 12.0685C6.71108 12.1447 6.60774 12.1875 6.5 12.1875ZM2.03125 2.4375H10.9688V3.25H2.03125V2.4375Z" fill="#383838"/>
</g>
<defs>
<clipPath id="clip0_13064_80">
<rect width="13" height="13" fill="white"/>
</clipPath>
</defs>
</svg>
